<mxfile host="app.diagrams.net" modified="2024-01-24T03:03:11.160Z" agent="Mozilla/5.0 (X11; Linux x86_64) AppleWebKit/537.36 (KHTML, like Gecko) Chrome/120.0.0.0 Safari/537.36" version="22.1.21" etag="shb6_XQT6582-qrg6VWQ" type="github">
  <diagram name="Page-1" id="9nLId5k3Yff63Bz5OH_D">
    <mxGraphModel>
      <root>
        <mxCell id="0" />
        <mxCell id="1" parent="0" />
      </root>
    </mxGraphModel>
  </diagram>
</mxfile>
